<svg xmlns="http://www.w3.org/2000/svg" xmlns:xlink="http://www.w3.org/1999/xlink" viewBox="0 0 70.61 69.36"><defs><clipPath id="clip-path" transform="translate(0 -0.05)"><circle cx="35.54" cy="34.62" r="34.62" style="fill:none"/></clipPath></defs><title>Asset 9</title><g id="Layer_2" data-name="Layer 2"><g id="Layer_1-2" data-name="Layer 1"><path d="M67.18,20.68a34.68,34.68,0,0,0-63.41,0Z" transform="translate(0 -0.05)" style="fill:#324f7f"/><path d="M3.77,48.79a34.68,34.68,0,0,0,63.41,0Z" transform="translate(0 -0.05)" style="fill:#324f7f"/><g style="clip-path:url(#clip-path)"><rect x="0.46" y="23.37" width="7.34" height="2.69" style="fill:#324f7f"/><rect x="0.46" y="28.37" width="7.34" height="2.69" style="fill:#324f7f"/><rect x="0.46" y="33.36" width="7.34" height="2.69" style="fill:#324f7f"/><rect x="0.46" y="38.35" width="7.34" height="2.69" style="fill:#324f7f"/><rect x="0.46" y="43.34" width="7.34" height="2.69" style="fill:#324f7f"/><rect x="63.27" y="23.37" width="7.34" height="2.69" style="fill:#324f7f"/><rect x="63.27" y="28.37" width="7.34" height="2.69" style="fill:#324f7f"/><rect x="63.27" y="33.36" width="7.34" height="2.69" style="fill:#324f7f"/><rect x="63.27" y="38.35" width="7.34" height="2.69" style="fill:#324f7f"/><rect x="63.27" y="43.34" width="7.34" height="2.69" style="fill:#324f7f"/></g><text transform="translate(7.64 45.75)" style="font-size:31px;fill:#324f7f;font-family:Avenir-Black, Avenir"><tspan style="letter-spacing:-0.017987651209677415em">R</tspan><tspan x="19.53" y="0">TL</tspan></text></g></g></svg>